<?xml version="1.0" standalone="no"?>
<!DOCTYPE svg PUBLIC "-//W3C//DTD SVG 20010904//EN"
 "http://www.w3.org/TR/2001/REC-SVG-20010904/DTD/svg10.dtd">
<svg version="1.0" xmlns="http://www.w3.org/2000/svg"
 width="4805.000000pt" height="4805.000000pt" viewBox="0 0 4805.000000 4805.000000"
 preserveAspectRatio="xMidYMid meet">
<metadata>
Created by potrace 1.14, written by Peter Selinger 2001-2017
</metadata>
<g transform="translate(0.000000,4805.000000) scale(0.100000,-0.100000)"
fill="#000000" stroke="none">
<path d="M16828 36672 l-7738 -2287 0 -348 c0 -327 1 -348 18 -343 1462 435
15427 4559 15447 4563 21 3 2278 -660 7762 -2281 4252 -1257 7734 -2286 7737
-2286 9 0 7 688 -2 694 -8 4 -15444 4566 -15472 4572 -8 1 -3497 -1026 -7752
-2284z"/>
<path d="M17140 31849 c-419 -36 -772 -134 -1088 -299 -665 -349 -1141 -990
-1332 -1795 -103 -431 -134 -950 -85 -1421 74 -706 332 -1283 780 -1743 147
-151 241 -230 400 -336 405 -270 859 -405 1425 -422 863 -26 1558 232 2081
774 449 465 706 1066 783 1833 66 648 -5 1278 -200 1772 -139 354 -340 663
-599 923 -389 391 -863 620 -1446 700 -137 19 -569 28 -719 14z m480 -620
c864 -78 1465 -616 1690 -1509 63 -252 89 -461 97 -790 6 -275 -4 -462 -38
-684 -138 -917 -665 -1549 -1449 -1739 -316 -77 -691 -87 -995 -26 -776 156
-1355 792 -1534 1684 -46 226 -55 345 -55 670 0 333 9 432 60 685 56 275 187
601 324 810 359 546 857 849 1485 903 92 8 308 6 415 -4z"/>
<path d="M9150 28846 l0 -2916 863 0 c492 0 922 4 1002 10 495 37 881 132
1255 312 568 272 1004 700 1276 1253 237 483 335 1047 294 1700 -68 1072 -485
1794 -1266 2193 -347 177 -742 284 -1249 338 -137 15 -304 18 -1167 21 l-1008
4 0 -2915z m1900 2284 c425 -30 761 -114 1065 -265 610 -304 935 -844 1006
-1673 15 -179 6 -571 -16 -732 -76 -544 -271 -960 -601 -1280 -120 -116 -186
-169 -314 -252 -242 -158 -568 -278 -900 -332 -215 -35 -277 -38 -857 -43
l-593 -5 0 2296 0 2296 533 0 c292 0 597 -5 677 -10z"/>
<path d="M21270 28845 l0 -2915 330 0 330 0 0 2259 c0 2044 -5 2628 -26 2749
-2 17 -1 32 4 32 5 0 24 -62 42 -137 70 -297 82 -326 1128 -2663 l999 -2235
170 -3 169 -2 1009 2267 c555 1248 1025 2318 1046 2378 20 61 54 174 75 253
21 78 42 142 47 142 5 0 6 -17 3 -37 -10 -64 -35 -465 -46 -718 -6 -140 -10
-1079 -10 -2262 l0 -2023 340 0 340 0 0 2915 0 2915 -427 0 -428 0 -927 -2058
c-1004 -2227 -973 -2155 -1094 -2477 -45 -121 -88 -221 -96 -223 -8 -1 -23 29
-41 90 -55 180 -185 484 -1101 2563 l-925 2100 -455 3 -456 2 0 -2915z"/>
<path d="M28180 31528 c65 -128 488 -961 939 -1852 l821 -1618 0 -1064 0
-1064 340 0 340 0 0 1072 0 1072 960 1837 c528 1010 960 1839 960 1843 0 3
-163 5 -361 4 l-361 -3 -565 -1090 c-759 -1466 -885 -1715 -924 -1818 -18 -48
-36 -84 -39 -80 -4 5 -37 85 -73 178 -46 117 -272 584 -720 1490 l-653 1320
-391 3 -391 2 118 -232z"/>
<path d="M34980 31683 c15 -43 491 -1355 1056 -2915 l1029 -2838 380 3 379 2
1073 2895 c590 1592 1075 2903 1078 2913 6 16 -16 17 -363 17 l-369 0 -839
-2347 c-460 -1292 -852 -2397 -870 -2458 -18 -60 -40 -150 -49 -200 -27 -145
-26 -141 -34 -125 -5 8 -14 53 -21 100 -7 47 -27 144 -45 215 -20 80 -349
1036 -851 2473 l-819 2342 -382 0 -382 0 29 -77z"/>
<path d="M23590 24235 l0 -355 1810 0 1810 0 0 355 0 355 -1810 0 -1810 0 0
-355z"/>
<path d="M9090 18360 l0 -5070 470 0 470 0 0 5070 0 5070 -470 0 -470 0 0
-5070z"/>
<path d="M11710 23000 l0 -430 1460 0 1460 0 0 -4640 0 -4640 470 0 470 0 0
4640 0 4640 1465 0 1465 0 0 430 0 430 -3395 0 -3395 0 0 -430z"/>
<path d="M20488 18367 c-1061 -2785 -1928 -5066 -1928 -5070 0 -4 235 -7 523
-7 l522 0 534 1473 c294 809 540 1484 548 1500 l14 27 2170 -2 2171 -3 557
-1495 557 -1495 526 -3 526 -2 -33 87 c-47 125 -3792 10014 -3800 10036 -7 16
-39 17 -484 17 l-476 0 -1927 -5063z m2402 3926 c17 -112 82 -357 133 -508 24
-71 416 -1144 871 -2382 454 -1239 826 -2255 826 -2258 0 -3 -833 -5 -1851 -5
l-1851 0 4 23 c3 12 379 1050 836 2307 456 1257 849 2343 871 2413 39 123 87
309 111 430 16 82 35 74 50 -20z"/>
<path d="M28810 18360 l0 -5070 2505 0 2505 0 0 425 0 425 -2035 0 -2035 0 0
4645 0 4645 -470 0 -470 0 0 -5070z"/>
<path d="M35540 18360 l0 -5070 470 0 470 0 0 5070 0 5070 -470 0 -470 0 0
-5070z"/>
<path d="M38910 18360 l0 -5070 470 0 470 0 0 5070 0 5070 -470 0 -470 0 0
-5070z"/>
</g>
</svg>
